<svg width="32" height="32" viewBox="0 0 32 32" xmlns="http://www.w3.org/2000/svg"><title>VariableTypeTabs/Tab/Icon-date</title><path d="M20.656 19.744V12.4h-9.312v7.344h9.312zm0-10.688c.363 0 .677.133.944.4.267.267.4.581.4.944v9.344c0 .363-.133.672-.4.928a1.318 1.318 0 0 1-.944.384h-9.312a1.31 1.31 0 0 1-.952-.384 1.251 1.251 0 0 1-.392-.928V10.4c0-.363.13-.677.392-.944.261-.267.579-.4.952-.4H12V7.744h1.344v1.312h5.312V7.744H20v1.312h.656zm-1.312 4.688v1.312H18v-1.312h1.344zm-2.688 0v1.312h-1.312v-1.312h1.312zm-2.656 0v1.312h-1.344v-1.312H14z" fill="#979797" fill-rule="nonzero"/></svg>