<svg width="32" height="32" viewBox="0 0 32 32" xmlns="http://www.w3.org/2000/svg"><title>VariableTypeTabs/Tab/Icon-text</title><path d="M10.822 13.952a5.945 5.945 0 0 0-.357-.014c-.387 0-.747.089-1.078.266a2.748 2.748 0 0 0-.858.717 3.49 3.49 0 0 0-.567 1.05c-.137.4-.206.82-.206 1.264 0 .504.08.873.238 1.106.159.233.376.35.651.35.191 0 .38-.066.563-.2.185-.133.36-.314.525-.546.166-.23.318-.502.455-.815.138-.313.258-.649.361-1.008l.273-2.17zm-.476 4.55c-.317.49-.676.88-1.075 1.169-.399.29-.834.434-1.305.434a1.81 1.81 0 0 1-.76-.161 1.713 1.713 0 0 1-.616-.48 2.343 2.343 0 0 1-.413-.797c-.1-.32-.15-.695-.15-1.124a4.953 4.953 0 0 1 1.337-3.381 4.592 4.592 0 0 1 2.068-1.27c.404-.12.83-.179 1.278-.179a6.8 6.8 0 0 1 .97.07c.324.047.64.13.948.252L11.767 20h-.917c-.22 0-.368-.055-.445-.165a.695.695 0 0 1-.115-.409l.056-.924zm4.893-.182c.159.173.34.294.546.364.205.07.408.105.609.105.308 0 .588-.096.84-.287.252-.191.468-.441.647-.749.18-.308.319-.654.417-1.04a4.68 4.68 0 0 0 .147-1.158c0-.504-.082-.878-.245-1.123a.78.78 0 0 0-.686-.368c-.191 0-.385.064-.581.193a2.494 2.494 0 0 0-.567.532 4.592 4.592 0 0 0-.508.801 6.55 6.55 0 0 0-.402.994l-.217 1.736zm.504-4.081c.336-.471.71-.845 1.123-1.12a2.337 2.337 0 0 1 1.32-.413c.299 0 .57.055.812.165.243.11.45.274.623.493.173.22.306.497.399.833.093.336.14.73.14 1.183a5.901 5.901 0 0 1-.48 2.31c-.151.35-.334.672-.549.966a4.203 4.203 0 0 1-.71.763 3.204 3.204 0 0 1-.834.504 2.407 2.407 0 0 1-.92.182c-.364 0-.69-.073-.98-.22a2.135 2.135 0 0 1-.728-.599l-.056.238a.81.81 0 0 1-.203.36c-.084.078-.22.116-.406.116h-.938l1.26-10.402h1.694l-.567 4.641zm10.696 4.487c-.238.261-.466.48-.683.658a3.31 3.31 0 0 1-.661.427 2.757 2.757 0 0 1-.704.227 4.552 4.552 0 0 1-.808.067c-.415 0-.788-.071-1.117-.213a2.319 2.319 0 0 1-.836-.606 2.694 2.694 0 0 1-.525-.945 3.926 3.926 0 0 1-.182-1.232c0-.387.042-.765.126-1.134.084-.369.205-.716.364-1.043.159-.327.35-.625.574-.896.224-.27.476-.504.756-.7.28-.196.584-.349.913-.459.33-.11.678-.164 1.047-.164.476 0 .88.084 1.214.252.334.168.63.42.886.756l-.553.658a.638.638 0 0 1-.14.116.337.337 0 0 1-.182.052.339.339 0 0 1-.214-.074 3.237 3.237 0 0 0-.224-.157 1.727 1.727 0 0 0-.322-.158 1.426 1.426 0 0 0-.5-.073c-.266 0-.52.072-.763.217-.243.145-.457.35-.644.616a3.253 3.253 0 0 0-.445.959c-.11.373-.164.786-.164 1.239 0 .527.117.934.35 1.221.233.288.55.431.952.431a1.77 1.77 0 0 0 1.106-.367c.08-.064.154-.122.224-.175.07-.054.136-.1.2-.137a.398.398 0 0 1 .206-.056c.06 0 .118.015.171.045.054.03.102.07.144.116l.434.532z" fill="#979797" fill-rule="nonzero"/></svg>