<svg width="32" height="32" viewBox="0 0 32 32" xmlns="http://www.w3.org/2000/svg"><title>VariableTypeTabs/Tab/Icon-number</title><path d="M11.857 18.89V20h-4.8v-1.11h1.758v-5.058c0-.2.006-.406.018-.618l-1.248 1.044a.516.516 0 0 1-.213.105.51.51 0 0 1-.363-.06.349.349 0 0 1-.108-.099l-.468-.642 2.646-2.25h1.218v7.578h1.56zm6.636-.27c.16 0 .287.045.38.135.095.09.142.209.142.357V20h-5.952v-.492c0-.1.02-.205.063-.315a.807.807 0 0 1 .2-.297l2.635-2.64c.22-.224.417-.438.59-.642.175-.204.32-.406.436-.606.116-.2.205-.403.267-.609.062-.206.093-.423.093-.651 0-.208-.03-.391-.09-.549a1.055 1.055 0 0 0-.651-.642 1.562 1.562 0 0 0-.52-.081c-.175 0-.338.025-.488.075a1.332 1.332 0 0 0-.873.921c-.068.184-.156.306-.264.366-.108.06-.264.074-.468.042l-.78-.138c.06-.416.176-.781.348-1.095.172-.314.387-.576.645-.786.258-.21.554-.368.888-.474a3.541 3.541 0 0 1 1.077-.159c.4 0 .766.059 1.098.177.332.118.616.285.852.501.236.216.42.476.552.78.132.304.198.642.198 1.014 0 .32-.047.616-.141.888-.094.272-.22.532-.378.78a5.252 5.252 0 0 1-.555.72c-.212.232-.434.468-.666.708l-1.956 1.998c.188-.056.375-.099.56-.129.187-.03.364-.045.532-.045h2.226zm1.722-4.878c.06-.416.176-.781.348-1.095.172-.314.387-.576.645-.786.258-.21.554-.368.888-.474a3.541 3.541 0 0 1 1.077-.159c.4 0 .76.057 1.083.171.322.114.597.272.825.474a2.076 2.076 0 0 1 .708 1.593c0 .276-.031.519-.093.729-.062.21-.151.393-.267.549-.116.156-.26.288-.432.396a2.689 2.689 0 0 1-.582.27c.52.164.908.414 1.164.75.256.336.384.758.384 1.266 0 .432-.08.814-.24 1.146-.16.332-.376.611-.648.837a2.824 2.824 0 0 1-.945.513 3.666 3.666 0 0 1-1.137.174 3.88 3.88 0 0 1-1.14-.15 2.475 2.475 0 0 1-.846-.444 2.681 2.681 0 0 1-.612-.72 4.859 4.859 0 0 1-.432-.984l.654-.27a.785.785 0 0 1 .483-.057c.15.034.259.115.327.243.072.14.15.278.237.414.086.136.189.257.309.363.12.106.26.192.423.258.162.066.355.099.579.099.252 0 .472-.041.66-.123.188-.082.345-.189.47-.321a1.359 1.359 0 0 0 .375-.93c0-.208-.021-.397-.065-.567a.84.84 0 0 0-.276-.435c-.14-.12-.341-.214-.603-.282-.262-.068-.613-.102-1.053-.102v-1.056a3.75 3.75 0 0 0 .906-.102c.24-.064.43-.153.573-.267a.905.905 0 0 0 .297-.411c.056-.16.084-.336.084-.528 0-.408-.114-.718-.342-.93-.228-.212-.532-.318-.912-.318a1.51 1.51 0 0 0-.486.075c-.148.05-.281.12-.4.21a1.304 1.304 0 0 0-.476.711c-.068.184-.157.306-.267.366-.11.06-.265.074-.465.042l-.78-.138z" fill="#979797" fill-rule="nonzero"/></svg>