<svg width="32" height="32" viewBox="0 0 32 32" xmlns="http://www.w3.org/2000/svg"><title>VariableTypeTabs/Tab/Icon-date-range</title><g fill="#979797" fill-rule="nonzero"><path d="M14.074 19.776V13.35H5.926v6.426h8.148zm0-9.352c.317 0 .593.117.826.35.233.233.35.509.35.826v8.176c0 .317-.117.588-.35.812a1.153 1.153 0 0 1-.826.336H5.926c-.327 0-.604-.112-.833-.336a1.095 1.095 0 0 1-.343-.812V11.6c0-.317.114-.593.343-.826.229-.233.506-.35.833-.35H6.5V9.276h1.176v1.148h4.648V9.276H13.5v1.148h.574zm-1.148 4.102v1.148H11.75v-1.148h1.176zm-2.352 0v1.148H9.426v-1.148h1.148zm-2.324 0v1.148H7.074v-1.148H8.25zM26.074 19.776V13.35h-8.148v6.426h8.148zm0-9.352c.317 0 .593.117.826.35.233.233.35.509.35.826v8.176c0 .317-.117.588-.35.812a1.153 1.153 0 0 1-.826.336h-8.148c-.327 0-.604-.112-.833-.336a1.095 1.095 0 0 1-.343-.812V11.6c0-.317.114-.593.343-.826.229-.233.506-.35.833-.35h.574V9.276h1.176v1.148h4.648V9.276H25.5v1.148h.574zm-1.148 4.102v1.148H23.75v-1.148h1.176zm-2.352 0v1.148h-1.148v-1.148h1.148zm-2.324 0v1.148h-1.176v-1.148h1.176z"/></g></svg>